<svg width="448" height="512" viewBox="0 0 448 512" fill="none" xmlns="http://www.w3.org/2000/svg">
<g clip-path="url(#clip0_3_6)">
<path d="M152 88C152 78.5448 153.862 69.1822 157.481 60.4468C161.099 51.7114 166.402 43.7741 173.088 37.0883C179.774 30.4025 187.711 25.099 196.447 21.4807C205.182 17.8623 214.545 16 224 16C233.455 16 242.818 17.8623 251.553 21.4807C260.289 25.099 268.226 30.4025 274.912 37.0883C281.598 43.7741 286.901 51.7114 290.519 60.4468C294.138 69.1822 296 78.5448 296 88C296 97.4552 294.138 106.818 290.519 115.553C286.901 124.289 281.598 132.226 274.912 138.912C268.226 145.598 260.289 150.901 251.553 154.519C242.818 158.138 233.455 160 224 160C214.545 160 205.182 158.138 196.447 154.519C187.711 150.901 179.774 145.598 173.088 138.912C166.402 132.226 161.099 124.289 157.481 115.553C153.862 106.818 152 97.4552 152 88ZM39.7 144.5C52.7 126.6 77.7 122.7 95.6 135.7L131.8 162C158.6 181.5 190.9 192 224 192C257.1 192 289.4 181.5 316.2 162L352.4 135.6C370.3 122.6 395.3 126.6 408.3 144.4C421.3 162.2 417.3 187.3 399.5 200.3L363.3 226.7C349.7 236.6 335.2 244.9 320 251.7V288H128V251.7C112.8 245 98.3 236.6 84.7 226.7L48.5 200.3C30.6 187.3 26.7 162.3 39.7 144.4V144.5ZM129.5 329.3L190.1 382.3L164.1 419.5L188.4 443.8C204 459.4 204 484.7 188.4 500.4C172.8 516.1 147.5 516 131.8 500.4L83.8 452.4C70 438.6 68.1 417 79.2 401.1L129.4 329.3H129.5ZM258 382.3L318.6 329.3L368.8 401.1C379.9 417 378 438.6 364.3 452.3L316.3 500.3C300.7 515.9 275.4 515.9 259.7 500.3C244 484.7 244.1 459.4 259.7 443.7L284 419.4L258 382.2V382.3Z" fill="#5E216A"/>
</g>
<defs>
<clipPath id="clip0_3_6">
<rect width="448" height="512" fill="white"/>
</clipPath>
</defs>
</svg>
