<svg width="640" height="512" viewBox="0 0 640 512" fill="none" xmlns="http://www.w3.org/2000/svg">
<g clip-path="url(#clip0_2_2)">
<path d="M176 288C190.708 288 205.272 285.103 218.861 279.475C232.449 273.846 244.796 265.596 255.196 255.196C265.596 244.796 273.846 232.449 279.475 218.861C285.103 205.272 288 190.708 288 176C288 161.292 285.103 146.728 279.475 133.139C273.846 119.551 265.596 107.204 255.196 96.804C244.796 86.4039 232.449 78.154 218.861 72.5255C205.272 66.897 190.708 64 176 64C161.292 64 146.728 66.897 133.139 72.5255C119.551 78.154 107.204 86.4039 96.804 96.804C86.4039 107.204 78.154 119.551 72.5255 133.139C66.897 146.728 64 161.292 64 176C64 190.708 66.897 205.272 72.5255 218.861C78.154 232.449 86.4039 244.796 96.804 255.196C107.204 265.596 119.551 273.846 133.139 279.475C146.728 285.103 161.292 288 176 288ZM352 176C352 262.3 289.9 334.1 208 349.1V384H240C257.7 384 272 398.3 272 416C272 433.7 257.7 448 240 448H208V480C208 497.7 193.7 512 176 512C158.3 512 144 497.7 144 480V448H112C94.3 448 80 433.7 80 416C80 398.3 94.3 384 112 384H144V349.1C62.1 334.1 0 262.3 0 176C0 78.8 78.8 0 176 0C273.2 0 352 78.8 352 176ZM271.9 360.6C291.2 350.5 308.8 337.5 324 322.2C344 340.7 370.7 352 400.1 352C462 352 512.1 301.9 512.1 240C512.1 178.1 462 128 400.1 128C392.9 128 385.8 128.7 379 130C374.1 108.5 366 88.3 355 69.8C369.3 66 384.4 64 400 64C437 64 471.4 75.4 499.8 95L520.4 74.4L487 41C480.1 34.1 478.1 23.8 481.8 14.8C485.5 5.8 494.3 0 504 0H616C629.3 0 640 10.7 640 24V136C640 145.7 634.2 154.5 625.2 158.2C616.2 161.9 605.9 159.9 599 153L565.6 119.6L545 140.2C564.5 168.6 576 202.9 576 240C576 337.2 497.2 416 400 416C349.5 416 304 394.7 271.9 360.6Z" fill="#5E216A"/>
</g>
<defs>
<clipPath id="clip0_2_2">
<rect width="640" height="512" fill="white"/>
</clipPath>
</defs>
</svg>
